<?xml version="1.0" standalone="no"?>
<!DOCTYPE svg PUBLIC "-//W3C//DTD SVG 20010904//EN"
 "http://www.w3.org/TR/2001/REC-SVG-20010904/DTD/svg10.dtd">
<svg version="1.0" xmlns="http://www.w3.org/2000/svg"
 width="816.000000pt" height="768.000000pt" viewBox="0 0 816.000000 768.000000"
 preserveAspectRatio="xMidYMid meet">

<g transform="translate(0.000000,768.000000) scale(0.100000,-0.100000)"
fill="#000000" stroke="none">
<path d="M0 3928 c0 -2438 4 -3758 10 -3768 9 -13 11 -13 20 0 8 13 10 12 10
-2 0 -10 5 -18 10 -18 6 0 10 -4 10 -10 0 -5 -7 -6 -17 -3 -12 5 -14 3 -8 -7
5 -9 4 -11 -4 -6 -6 4 -9 12 -6 17 4 5 -1 9 -9 9 -30 0 -18 -38 13 -45 30 -6
35 -25 13 -47 -9 -9 -12 -6 -12 15 0 21 -4 25 -17 20 -9 -4 -12 -8 -6 -10 6
-2 9 -13 6 -24 -5 -16 -1 -19 18 -17 13 2 30 7 36 11 7 5 17 6 22 3 17 -11 35
26 32 65 -3 39 3 44 33 33 17 -7 22 -34 6 -34 -5 0 -10 -4 -10 -10 0 -5 7 -10
16 -10 8 0 13 4 9 9 -3 5 0 13 6 16 5 4 8 13 5 20 -2 7 4 15 16 19 17 4 19 8
9 19 -7 9 -9 31 -6 56 2 22 1 40 -3 40 -19 -3 -29 2 -29 16 0 10 4 12 12 5 7
-5 14 -8 17 -5 2 3 11 -6 18 -20 8 -14 22 -25 34 -25 17 0 18 2 6 10 -12 8
-10 10 8 10 15 0 21 4 16 11 -4 7 -1 10 7 7 8 -3 13 -12 11 -22 -2 -9 1 -16 6
-16 12 0 23 26 14 34 -9 10 -11 37 -2 31 4 -3 10 4 13 14 3 12 -1 22 -9 25 -8
3 -14 0 -14 -6 0 -6 -3 -8 -7 -4 -11 11 26 36 43 29 10 -4 12 0 8 11 -6 16 11
46 27 46 11 0 7 -23 -6 -32 -6 -5 -5 -8 4 -8 7 0 11 -6 8 -13 -7 -18 9 -44 20
-33 4 5 3 11 -3 13 -7 2 -10 13 -7 23 3 11 9 17 14 14 5 -3 19 2 31 10 12 9
18 16 12 16 -6 0 -11 7 -11 15 0 11 4 12 11 5 22 -22 28 -8 6 15 -13 14 -21
28 -17 31 4 4 9 -1 13 -10 8 -20 24 -21 24 -2 0 8 -9 18 -21 21 -27 9 -19 16
10 8 17 -4 22 -11 18 -29 -2 -13 2 -29 9 -35 10 -8 12 -5 8 15 -4 26 4 31 48
27 9 -1 19 2 22 7 3 5 -12 8 -34 7 -30 -2 -40 2 -40 12 0 14 45 56 62 59 5 1
11 3 16 4 4 1 11 2 15 1 5 -1 6 3 3 8 -3 5 -15 7 -26 4 -15 -4 -19 -2 -14 10
3 9 14 14 25 12 21 -4 27 20 7 28 -7 3 -1 6 15 6 27 1 38 -14 16 -21 -7 -2 -9
-13 -5 -26 9 -26 25 -30 22 -5 -4 25 23 73 42 74 13 0 11 3 -6 11 -28 14 -29
32 -1 23 17 -6 20 -3 17 21 -2 15 3 29 9 31 7 3 13 -3 13 -14 1 -16 2 -16 10
-2 5 9 8 26 5 38 -2 13 1 21 10 21 16 0 28 27 14 34 -5 2 -4 3 3 1 14 -3 14
-9 3 -37 -5 -13 -2 -18 10 -18 9 0 14 4 11 8 -2 4 4 8 15 8 10 0 19 -6 19 -13
0 -7 -6 -10 -13 -8 -6 3 -18 -4 -25 -15 -7 -11 -8 -20 -3 -20 6 0 14 8 20 18
5 9 13 16 18 14 17 -6 13 25 -7 46 -11 12 -18 23 -15 23 3 1 10 3 15 4 6 1 15
3 21 4 5 0 8 4 6 9 -3 4 -1 16 4 27 7 19 8 19 8 -1 1 -12 8 -27 16 -34 12 -10
16 -8 25 15 13 33 13 55 0 55 -5 0 -7 -6 -4 -14 3 -8 1 -16 -4 -20 -5 -3 -8 5
-7 16 1 14 11 25 28 31 15 5 27 15 27 23 0 9 -5 12 -12 8 -7 -4 -8 -3 -4 4 4
7 14 12 22 12 8 0 14 4 14 10 0 5 -8 7 -18 3 -11 -3 -9 1 6 12 13 9 26 14 29
11 4 -3 2 -6 -3 -6 -5 0 -10 -22 -10 -50 -1 -27 2 -47 7 -45 4 3 12 -3 18 -12
6 -10 11 -15 11 -10 0 4 -6 16 -12 27 -10 16 -10 24 0 41 8 12 9 18 3 14 -6
-3 -11 1 -11 9 0 22 22 66 33 66 5 0 4 7 -3 15 -8 9 -8 15 -2 15 6 0 12 -5 14
-12 2 -6 11 -12 20 -14 12 -1 15 3 10 14 -5 15 -4 15 12 3 16 -13 18 -13 16 0
-1 7 -2 25 -1 38 1 24 1 24 17 5 8 -10 12 -13 8 -5 -4 9 0 20 12 29 18 13 16
14 -17 10 -36 -4 -36 -3 -22 19 17 26 28 30 19 8 -4 -11 1 -15 19 -15 14 0 25
-5 25 -11 0 -5 5 -7 10 -4 6 4 4 12 -5 21 -20 20 -19 23 5 17 19 -5 24 -19 21
-53 -2 -12 0 -13 7 -1 5 7 8 21 6 30 -2 9 4 26 14 39 15 20 22 22 45 13 17 -7
28 -7 32 0 4 5 10 7 14 5 4 -3 8 2 8 10 0 10 -4 11 -11 4 -5 -5 -16 -10 -23
-10 -24 0 -13 19 19 36 20 10 28 19 20 22 -7 2 -21 -3 -31 -12 -15 -14 -20
-14 -30 -3 -17 21 9 38 50 32 21 -3 26 -2 14 3 -13 4 -21 17 -22 37 -2 20 0
25 6 16 5 -7 14 -10 20 -6 7 4 18 1 26 -5 11 -9 15 -9 15 -1 0 6 -9 15 -19 19
-18 6 -18 9 -6 32 9 15 14 19 15 10 0 -12 2 -12 9 -1 6 10 13 11 29 2 14 -7
23 -8 27 -1 4 6 3 10 -2 9 -4 -1 -21 1 -37 6 -24 6 -26 9 -12 17 9 5 16 17 16
26 1 16 1 16 11 -1 5 -9 7 -22 4 -27 -8 -12 5 -13 23 -1 11 6 10 10 -4 15 -15
6 -16 9 -5 16 8 4 19 7 25 6 6 -2 8 -1 4 1 -13 8 -9 23 6 23 21 0 40 27 24 33
-7 3 -4 6 7 6 16 1 17 3 6 10 -8 5 -16 16 -17 25 -2 12 2 14 16 6 31 -17 44
-11 20 8 -20 16 -21 19 -7 25 10 4 17 2 17 -3 0 -6 6 -9 12 -7 7 1 12 -4 10
-12 -2 -11 0 -12 11 -3 8 7 17 9 21 5 4 -4 4 0 1 9 -4 11 0 18 14 23 13 4 18
11 14 22 -4 10 -2 14 4 10 6 -4 14 4 17 18 4 16 11 22 21 19 8 -4 15 -1 15 5
0 6 -6 11 -14 11 -8 0 -22 3 -32 7 -13 5 -15 3 -9 -8 6 -11 5 -12 -5 -2 -12
11 -11 15 5 27 12 8 26 11 35 6 18 -9 42 -2 35 10 -3 5 -13 6 -22 3 -10 -4
-14 -2 -10 4 4 6 16 13 27 16 13 3 18 1 13 -5 -3 -7 -1 -8 6 -4 6 4 20 2 29
-5 9 -8 6 -1 -7 13 -13 15 -21 33 -18 40 4 9 6 8 6 -3 1 -9 8 -19 16 -23 13
-5 21 19 17 55 -1 3 5 6 13 6 8 0 12 -4 10 -8 -6 -8 25 -22 33 -14 3 3 0 5 -6
5 -7 0 -12 5 -12 10 0 7 7 7 22 -1 18 -10 20 -9 14 6 -5 13 -2 16 9 11 9 -3
14 -2 10 3 -3 5 1 12 7 15 7 3 4 4 -6 3 -10 -1 -21 4 -23 11 -3 7 1 10 11 6
19 -7 21 6 4 26 -7 8 -3 6 10 -4 20 -18 22 -18 22 -2 0 9 5 14 10 11 6 -3 10
2 11 12 0 11 3 13 6 5 3 -7 -1 -19 -7 -27 -10 -12 -9 -15 3 -15 18 0 30 27 20
43 -4 8 -1 7 9 -1 13 -10 17 -10 22 3 3 9 2 14 -3 11 -14 -9 -23 26 -10 38 9
8 10 8 6 0 -4 -7 -1 -14 7 -17 8 -3 17 2 21 11 5 14 7 14 16 2 7 -11 8 -8 5
12 -4 21 -1 28 12 28 13 0 13 2 -3 13 -14 11 -15 16 -5 22 7 4 16 2 21 -6 7
-11 9 -10 9 4 0 9 -4 17 -8 17 -5 0 -9 7 -9 15 0 10 4 12 12 5 9 -8 15 -6 19
6 5 13 9 14 21 4 12 -10 15 -9 15 5 0 15 2 16 18 4 14 -11 15 -11 4 1 -6 8
-12 22 -12 33 0 17 1 17 16 2 22 -22 48 -2 33 26 -7 15 -7 19 3 17 8 -2 12 6
11 24 -1 19 4 28 19 31 11 3 17 10 14 15 -3 6 5 5 18 -1 29 -14 24 -31 -6 -21
-15 4 -19 2 -15 -7 2 -8 11 -12 18 -10 8 2 22 3 31 3 25 -1 30 26 7 39 -20 10
-20 11 -2 25 17 13 17 15 -7 36 -16 14 -19 19 -7 15 10 -4 17 -2 17 6 0 22 20
-17 20 -40 0 -40 16 -25 17 16 0 22 9 50 18 63 10 13 15 16 12 7 -3 -9 0 -22
6 -28 8 -8 7 -11 -6 -11 -9 0 -17 -5 -17 -11 0 -5 6 -7 12 -3 10 6 10 5 1 -8
-7 -8 -10 -18 -6 -21 9 -9 23 -9 21 1 -3 14 21 60 34 65 8 3 6 6 -6 6 -16 1
-17 3 -5 18 8 9 13 26 11 37 -3 21 -2 21 13 2 18 -23 29 -16 20 13 -4 13 -13
18 -26 16 -11 -2 -17 0 -14 6 4 5 10 7 15 4 5 -3 12 0 16 7 5 8 12 0 21 -23
l13 -34 -5 35 c-5 33 -5 33 11 15 12 -15 14 -16 11 -4 -4 13 -1 15 14 12 10
-3 19 -10 19 -17 0 -6 5 -4 10 4 6 10 4 17 -7 24 -13 7 -13 10 -2 17 12 8 12
11 -1 19 -13 8 -12 10 2 10 10 0 17 5 15 12 -1 7 3 12 10 13 15 0 30 15 15 15
-20 0 -14 18 8 25 11 3 20 11 20 16 0 6 -4 8 -10 4 -5 -3 -18 3 -29 14 -19 19
-19 19 4 23 18 4 22 1 17 -11 -5 -14 -3 -14 11 -3 9 8 21 11 27 7 5 -3 10 1
10 9 0 9 -5 15 -12 13 -6 -1 -13 5 -15 14 -3 13 2 15 23 11 23 -4 26 -2 21 12
-4 9 -3 15 2 12 5 -3 14 1 20 8 8 10 9 16 1 21 -5 3 -10 11 -10 18 0 6 6 4 12
-5 18 -22 60 -6 52 19 -3 10 1 7 9 -6 8 -14 17 -19 21 -13 3 6 2 13 -3 16 -15
10 -10 66 6 66 8 0 12 4 8 9 -3 5 -1 12 5 16 6 3 10 -4 10 -16 0 -12 3 -19 7
-16 3 4 13 1 21 -6 13 -10 14 -9 7 2 -6 11 -4 13 8 8 22 -8 34 10 42 66 8 53
19 65 41 46 12 -10 13 -9 8 5 -3 9 -2 16 4 16 6 0 8 10 6 23 -3 16 -1 14 10
-8 14 -28 15 -28 16 -7 0 13 10 32 23 42 20 17 24 17 45 4 12 -8 22 -10 22 -5
0 5 -4 12 -9 15 -11 7 -2 46 10 46 5 0 9 -4 9 -10 0 -18 29 -10 35 10 3 11 11
20 17 20 6 0 16 7 23 16 9 13 16 14 31 6 16 -9 20 -7 21 8 1 12 -6 20 -20 23
-18 4 -17 5 5 6 16 0 27 4 27 9 -4 22 2 42 12 39 6 -1 14 5 16 13 3 9 1 11 -4
5 -10 -13 -43 -16 -43 -4 0 8 26 25 44 29 29 6 26 -65 -3 -87 -9 -6 -13 -15
-8 -19 4 -4 7 -2 7 4 0 7 7 12 15 12 9 0 15 9 15 25 0 28 9 31 30 13 12 -11
12 -10 1 5 -10 13 -11 20 -2 31 9 10 9 20 -1 41 -10 22 -9 28 3 35 10 7 15 3
17 -15 2 -14 8 -25 13 -25 5 0 9 -9 9 -20 0 -22 38 -28 56 -10 7 7 19 7 35 1
13 -5 18 -10 11 -10 -14 -1 -42 -25 -42 -37 0 -3 6 -2 13 3 16 13 87 14 87 1
0 -6 -7 -7 -16 -4 -12 5 -15 2 -10 -10 3 -8 6 -18 6 -20 0 -2 7 -4 15 -4 8 0
15 7 15 17 0 14 3 14 22 -3 13 -12 18 -13 13 -4 -5 8 10 -2 34 -23 34 -31 45
-36 57 -26 18 15 18 17 -3 15 -10 0 -19 7 -21 18 -5 22 -2 19 -90 121 -37 44
-71 88 -75 98 -3 9 -13 17 -22 17 -8 0 -15 5 -15 10 0 14 -67 103 -119 159
-23 24 -41 46 -41 49 0 2 -10 15 -22 27 -13 12 -52 57 -87 101 -36 43 -80 94
-98 111 -18 18 -33 38 -33 43 0 6 -16 40 -35 76 -57 105 -85 183 -101 281 -13
83 -13 103 2 200 32 222 98 350 253 495 183 173 460 240 716 174 134 -34 153
-44 330 -170 64 -45 65 -45 156 31 68 56 190 114 299 143 155 41 364 25 514
-40 57 -24 141 -78 184 -119 18 -17 37 -31 43 -31 5 0 9 -7 9 -15 0 -8 4 -15
8 -15 10 0 112 -135 112 -149 0 -5 5 -13 10 -16 16 -10 11 22 -6 39 -8 9 -12
16 -7 16 4 0 2 4 -5 9 -8 5 -14 24 -14 43 0 39 -16 72 -25 50 -7 -17 -23 -5
-17 12 5 13 -8 34 -43 71 -7 8 -22 11 -35 7 -22 -5 -22 -5 -5 12 22 23 22 33
-3 41 -11 3 -20 12 -20 20 0 8 -7 11 -21 8 -18 -5 -20 -3 -14 16 5 15 2 21 -9
21 -9 0 -16 4 -16 10 0 5 -7 6 -17 3 -11 -4 -14 -3 -9 6 5 8 1 14 -13 18 -11
3 -23 14 -26 24 -4 10 -13 19 -21 19 -8 0 -14 5 -14 11 0 5 5 7 11 3 9 -5 10
1 5 20 -8 33 6 34 24 1 15 -28 36 -34 25 -7 -8 22 -8 23 0 50 4 13 13 21 20
18 13 -5 35 12 35 26 0 4 -5 8 -11 8 -5 0 -7 -4 -4 -10 3 -5 2 -10 -4 -10 -12
0 -26 48 -17 57 3 4 6 -1 6 -10 0 -21 14 -22 30 -2 9 10 9 15 1 15 -6 0 -11 7
-11 15 0 21 16 19 25 -2 6 -17 7 -17 16 0 7 12 6 21 -5 33 -9 8 -16 30 -16 47
1 27 2 29 11 14 5 -9 7 -22 4 -27 -3 -6 1 -10 9 -10 8 0 17 -8 20 -17 3 -10 4
-6 2 10 -2 18 1 27 11 27 7 0 16 14 20 30 3 17 9 30 14 30 5 0 8 6 6 13 -1 6
6 11 15 9 22 -3 34 16 14 24 -9 3 -13 11 -10 16 4 6 16 -2 29 -18 13 -17 24
-23 28 -16 4 6 0 18 -9 27 -20 20 -11 33 11 15 13 -11 14 -10 9 4 -3 9 -1 16
4 16 6 0 13 -8 15 -17 2 -10 3 -5 1 11 -4 26 -2 27 13 15 11 -10 14 -10 9 -1
-4 7 -2 12 8 12 14 0 15 27 1 50 -3 6 1 7 9 4 10 -4 16 -19 17 -38 l1 -31 8
30 c4 17 8 24 9 18 1 -16 27 -17 37 -1 5 8 2 9 -10 5 -14 -6 -17 -3 -12 9 3 8
6 23 7 32 0 14 2 13 9 -3 8 -18 9 -19 9 -1 1 12 6 16 16 13 8 -4 17 -2 20 3 3
5 -5 10 -17 12 -24 3 -28 23 -5 23 6 1 11 6 10 13 -2 7 2 12 8 12 6 0 8 -9 4
-21 -7 -20 -5 -21 21 -15 37 10 39 12 24 31 -10 12 -10 15 5 15 13 0 16 6 12
23 -5 20 -5 20 7 5 12 -16 13 -16 26 2 8 10 17 17 22 14 4 -3 8 0 8 6 0 6 4 9
8 6 4 -2 7 12 5 32 -2 32 -1 34 6 12 7 -18 9 -20 10 -7 1 10 5 16 10 13 9 -6
24 30 22 54 -1 8 4 5 12 -7 12 -22 13 -23 27 -3 7 10 17 17 22 14 4 -3 8 3 8
13 0 13 2 15 9 5 6 -10 13 -3 25 23 14 29 15 39 5 51 -6 8 -9 18 -5 22 4 4 14
-2 22 -12 20 -28 17 -11 -3 21 -17 26 -17 26 4 14 27 -14 36 -14 27 1 -4 6 -3
8 4 4 6 -3 13 -2 17 4 4 6 11 8 16 5 5 -4 9 2 9 12 0 15 2 16 10 3 11 -18 21
-10 23 19 1 11 7 21 15 21 7 0 12 6 11 13 -3 16 22 67 33 67 4 0 8 -7 8 -16 0
-8 5 -12 11 -9 6 4 8 13 5 20 -7 19 4 26 25 14 15 -7 19 -7 17 3 -2 8 7 13 23
13 26 -1 28 3 31 54 1 21 6 27 17 23 10 -4 11 -7 3 -10 -7 -2 -12 -8 -12 -13
0 -6 7 -6 19 0 11 6 20 24 23 45 2 22 0 32 -7 28 -5 -3 -4 1 3 10 10 12 20 14
42 8 24 -7 28 -6 22 8 -5 15 -4 15 11 3 15 -12 17 -12 11 4 -5 13 -4 16 4 11
7 -4 10 -2 6 7 -7 18 21 41 38 31 10 -6 10 -5 0 8 -11 14 -10 18 5 27 10 6 13
11 6 11 -6 0 -15 -4 -18 -10 -3 -5 -14 -14 -25 -20 -15 -8 -18 -6 -16 8 2 9
12 17 22 17 10 0 23 10 29 23 10 24 28 31 19 8 -3 -8 0 -17 5 -21 6 -3 8 -11
5 -17 -4 -6 -3 -8 3 -5 6 4 9 19 7 34 -2 23 -1 25 9 13 14 -17 42 -26 32 -10
-9 14 18 13 35 -2 12 -11 12 -10 2 3 -6 9 -8 20 -4 24 4 5 -1 5 -10 2 -10 -4
-26 -10 -35 -14 -10 -3 -15 -3 -11 2 4 4 0 14 -10 22 -15 11 -14 12 10 3 18
-6 29 -6 34 1 3 6 12 8 20 5 8 -3 14 -1 14 3 0 5 -7 11 -15 15 -13 5 -13 9 -3
25 7 11 14 18 17 16 2 -3 -2 -11 -9 -20 -17 -20 4 -20 24 1 17 17 21 28 7 20
-5 -3 -11 0 -14 8 -3 9 3 16 15 19 19 5 20 7 4 22 -13 14 -14 20 -5 32 9 10
14 11 19 3 5 -8 9 -6 14 5 8 23 8 27 -4 20 -14 -9 -12 7 5 29 8 10 12 22 10
26 -3 5 2 11 11 14 10 4 13 2 8 -7 -6 -9 -4 -9 8 1 12 10 18 10 27 -2 9 -11 8
-15 -4 -20 -8 -3 -15 -11 -15 -17 0 -8 5 -8 16 1 8 8 14 9 12 3 -2 -6 1 -12 7
-12 5 -1 10 13 11 30 1 17 11 39 23 50 12 11 19 24 16 30 -4 5 3 9 14 9 12 0
21 5 21 11 0 6 -7 8 -16 5 -9 -3 -20 -6 -25 -6 -5 0 -9 -7 -9 -16 0 -8 -4 -12
-10 -9 -13 8 9 42 32 48 10 3 21 1 24 -4 13 -22 31 0 40 49 5 27 26 43 40 31
13 -10 18 -6 16 12 -1 4 11 17 25 30 14 13 23 18 19 12 -10 -17 12 -17 29 0 8
8 10 19 5 28 -6 11 -3 15 12 16 14 1 18 -3 14 -13 -4 -11 0 -11 19 3 32 23 31
31 -2 25 -22 -4 -25 -2 -20 12 4 10 7 22 7 27 0 4 7 5 17 2 12 -5 14 -3 8 7
-6 10 -4 12 9 7 10 -4 26 -2 36 3 14 8 21 6 28 -6 6 -11 11 -13 16 -5 9 14 -2
33 -15 26 -5 -4 -9 -2 -9 4 0 7 -9 7 -25 -1 -20 -9 -28 -9 -38 1 -9 10 -8 11
5 6 26 -10 42 4 26 23 -12 15 -11 16 4 4 9 -8 23 -10 29 -6 8 4 9 3 5 -4 -4
-7 -2 -12 3 -12 6 0 16 8 23 19 9 15 19 18 50 14 30 -5 38 -2 38 10 0 9 -4 18
-9 21 -5 3 -7 16 -5 29 4 20 4 20 -5 2 -5 -12 -5 -25 1 -32 14 -18 -15 -28
-40 -14 -11 6 -23 7 -28 3 -5 -4 -2 2 6 13 22 30 24 32 16 11 -7 -19 -6 -19
14 -1 11 10 20 23 20 29 0 6 -5 4 -10 -4 -5 -8 -10 -10 -10 -4 0 6 6 17 14 23
10 9 19 7 37 -9 17 -15 20 -23 11 -26 -6 -3 -10 -10 -6 -15 8 -14 31 -11 38 7
3 8 2 12 -4 9 -5 -3 -12 6 -16 20 -3 14 -10 25 -15 25 -5 0 -9 6 -9 13 1 6 10
1 21 -12 l20 -25 -7 29 c-6 25 -5 28 14 23 16 -4 19 -2 15 10 -4 10 -2 13 5 8
6 -3 13 -2 17 3 3 5 -3 14 -12 20 -15 8 -15 10 -2 11 8 0 20 -5 25 -10 7 -7
14 2 22 29 10 32 16 38 32 34 11 -3 20 0 20 6 0 7 11 9 28 6 l27 -5 -27 12
c-16 7 -28 19 -28 27 0 13 2 13 9 2 5 -7 15 -11 22 -9 8 3 19 -2 24 -9 8 -11
10 -6 10 20 -1 30 1 34 19 29 21 -5 21 -5 2 16 -25 28 -33 28 -38 -3 -3 -14
-1 -25 6 -25 6 0 4 -5 -4 -10 -20 -13 -30 -12 -30 1 0 5 3 8 8 5 4 -2 8 9 9
26 0 21 -2 27 -10 19 -6 -6 -15 -11 -20 -11 -5 0 -2 6 5 14 13 12 92 32 110
28 4 -1 6 7 5 18 -1 11 -5 20 -9 20 -4 0 -8 4 -8 10 0 5 6 7 14 4 8 -3 17 -1
21 5 4 8 11 7 21 -3 18 -19 18 -30 -1 -22 -17 6 -21 -9 -4 -19 14 -9 22 0 25
28 1 12 3 29 4 37 1 8 6 4 10 -10 7 -21 8 -22 9 -5 1 12 6 26 13 33 9 9 -836
12 -3700 12 l-3712 0 0 -3752z m7210 3662 c0 -5 -2 -10 -4 -10 -3 0 -8 5 -11
10 -3 6 -1 10 4 10 6 0 11 -4 11 -10z m-30 -60 c0 -5 -2 -10 -4 -10 -3 0 -8 5
-11 10 -3 6 -1 10 4 10 6 0 11 -4 11 -10z m40 -14 c0 -11 -19 -15 -25 -6 -3 5
1 10 9 10 9 0 16 -2 16 -4z m-80 -26 c0 -5 -2 -10 -4 -10 -3 0 -8 5 -11 10 -3
6 -1 10 4 10 6 0 11 -4 11 -10z m0 -42 c0 -4 -7 -8 -15 -8 -8 0 -15 4 -15 8 0
5 7 9 15 9 8 0 15 -4 15 -9z m-40 -28 c0 -5 7 -7 15 -4 8 4 15 1 15 -5 0 -5
-13 -9 -30 -8 -30 2 -36 8 -23 20 10 10 23 8 23 -3z m-40 -65 c0 -8 -6 -12
-14 -9 -8 3 -12 12 -9 20 6 17 23 9 23 -11z m-75 -25 c3 -6 -1 -7 -9 -4 -18 7
-21 14 -7 14 6 0 13 -4 16 -10z m-28 -52 c-3 -8 -6 -5 -6 6 -1 11 2 17 5 13 3
-3 4 -12 1 -19z m-90 -54 c-3 -3 -12 -4 -19 -1 -8 3 -5 6 6 6 11 1 17 -2 13
-5z m-76 -117 c-10 -9 -11 -8 -5 6 3 10 9 15 12 12 3 -3 0 -11 -7 -18z m-91
-68 c-6 -10 -13 -19 -16 -19 -2 0 0 8 5 19 6 10 7 22 3 26 -4 5 -1 5 6 1 9 -5
9 -12 2 -27z m-60 -113 c0 -2 -7 -9 -15 -16 -13 -11 -14 -10 -9 4 5 14 24 23
24 12z m-124 -55 c-3 -5 1 -14 9 -21 8 -7 15 -18 15 -26 0 -22 -21 -27 -38
-10 -10 9 -12 16 -5 16 7 0 10 10 7 25 -2 14 0 25 6 25 6 0 9 -4 6 -9z m-85
-38 c13 -16 12 -17 -3 -4 -10 7 -18 15 -18 17 0 8 8 3 21 -13z m45 -1 c0 -10
-6 -19 -13 -19 -8 0 -9 6 -2 19 5 10 11 18 12 18 2 0 3 -8 3 -18z m-131 -222
c3 -5 1 -10 -4 -10 -6 0 -11 5 -11 10 0 6 2 10 4 10 3 0 8 -4 11 -10z m0 -38
c-3 -3 -11 0 -18 7 -9 10 -8 11 6 5 10 -3 15 -9 12 -12z m-90 -31 c-3 -6 -11
-11 -16 -11 -5 0 -4 6 3 14 14 16 24 13 13 -3z m-45 -105 c0 -2 -8 -10 -17
-17 -16 -13 -17 -12 -4 4 13 16 21 21 21 13z m-125 -104 c-3 -3 -11 0 -18 7
-9 10 -8 11 6 5 10 -3 15 -9 12 -12z m-29 -61 c-4 -5 0 -12 6 -14 8 -3 6 -6
-4 -6 -10 -1 -18 6 -18 14 0 8 5 15 11 15 5 0 8 -4 5 -9z m-146 -118 c0 -7 -4
-13 -10 -13 -5 0 -10 5 -10 11 0 5 -4 7 -10 4 -5 -3 -10 -2 -10 4 0 5 9 9 20
8 11 -1 20 -7 20 -14z m-40 -39 c0 -2 -7 -4 -15 -4 -8 0 -15 4 -15 10 0 5 7 7
15 4 8 -4 15 -8 15 -10z m-106 -128 c2 -14 -1 -26 -5 -26 -5 0 -9 14 -9 32 0
36 10 32 14 -6z m-114 -94 c0 -15 -2 -15 -10 -2 -13 20 -13 33 0 25 6 -3 10
-14 10 -23z m-81 -59 c-7 -10 -15 -20 -16 -22 -2 -2 -3 5 -3 17 0 14 6 22 16
22 14 0 15 -3 3 -17z m-44 -23 c3 -5 1 -10 -4 -10 -6 0 -11 5 -11 10 0 6 2 10
4 10 3 0 8 -4 11 -10z m-475 -551 c0 -5 -4 -9 -10 -9 -5 0 -10 7 -10 16 0 8 5
12 10 9 6 -3 10 -10 10 -16z m55 -189 c3 -6 -1 -7 -9 -4 -18 7 -21 14 -7 14 6
0 13 -4 16 -10z m55 -60 c0 -5 -5 -10 -11 -10 -5 0 -7 5 -4 10 3 6 8 10 11 10
2 0 4 -4 4 -10z m-2000 -1680 c-27 -17 -41 -11 -22 9 10 11 21 14 27 9 6 -6 5
-12 -5 -18z m90 -24 c0 -3 -7 -6 -15 -6 -9 0 -15 9 -15 21 0 18 2 19 15 5 8
-8 15 -17 15 -20z m-143 9 c0 -8 -4 -15 -9 -15 -10 0 -11 14 -1 23 9 10 10 9
10 -8z m79 0 c-11 -8 -14 -15 -7 -15 7 0 9 -4 6 -10 -10 -16 -25 -11 -25 8 0
23 9 32 29 32 13 -1 12 -3 -3 -15z m42 -38 c6 -7 7 -18 3 -26 -7 -10 -10 -10
-16 -1 -6 9 -9 9 -16 -1 -6 -11 -9 -9 -15 5 -11 28 25 47 44 23z m-127 -10
c-1 -12 -15 -9 -19 4 -3 6 1 10 8 8 6 -3 11 -8 11 -12z m29 -27 c0 -5 -4 -10
-10 -10 -5 0 -10 5 -10 10 0 6 5 10 10 10 6 0 10 -4 10 -10z m-189 -120 c5 0
9 -4 9 -8 0 -5 -7 -9 -15 -9 -10 0 -15 9 -14 26 1 17 3 20 6 9 2 -10 9 -18 14
-18z m49 20 c0 -5 -2 -10 -4 -10 -3 0 -8 5 -11 10 -3 6 -1 10 4 10 6 0 11 -4
11 -10z m-110 -82 c0 -14 -18 -17 -28 -5 -8 10 -6 13 9 13 10 0 19 -4 19 -8z
m-184 -162 c8 -8 14 -19 14 -25 0 -6 -9 -2 -20 9 -11 11 -20 22 -20 25 0 9 11
5 26 -9z m-136 -126 c0 -5 -7 -7 -15 -4 -8 4 -15 8 -15 10 0 2 7 4 15 4 8 0
15 -4 15 -10z m-75 -60 c3 -5 1 -10 -4 -10 -6 0 -11 5 -11 10 0 6 2 10 4 10 3
0 8 -4 11 -10z m-58 -38 c14 11 15 11 11 -2 -2 -8 -11 -15 -19 -15 -7 0 -14 7
-15 15 -1 10 1 10 3 2 4 -11 7 -11 20 0z m-19 -76 c-7 -8 -15 -12 -17 -11 -5
6 10 25 20 25 5 0 4 -6 -3 -14z m-33 -34 c-20 -5 -20 -5 -1 -12 19 -6 19 -7
-2 -12 -18 -5 -21 -2 -19 22 2 25 4 27 22 17 l20 -11 -20 -4z m-108 -152 c-2
-24 -6 -24 -32 -4 -20 16 -19 16 4 9 16 -5 21 -4 17 4 -4 6 -3 11 3 11 5 0 9
-9 8 -20z m-123 -129 c3 -5 -1 -11 -9 -14 -9 -4 -12 -1 -8 9 6 16 10 17 17 5z
m-79 -61 c-3 -5 -11 -10 -16 -10 -6 0 -7 5 -4 10 3 6 11 10 16 10 6 0 7 -4 4
-10z m5 -84 c0 -11 -19 -15 -25 -6 -3 5 1 10 9 10 9 0 16 -2 16 -4z m-253
-178 c-3 -8 -6 -5 -6 6 -1 11 2 17 5 13 3 -3 4 -12 1 -19z m-184 -188 c-3 -11
-7 -20 -9 -20 -2 0 -4 9 -4 20 0 11 4 20 9 20 5 0 7 -9 4 -20z m-106 -102 c-3
-8 -6 -5 -6 6 -1 11 2 17 5 13 3 -3 4 -12 1 -19z m23 -58 c0 -5 -5 -10 -11
-10 -5 0 -7 5 -4 10 3 6 8 10 11 10 2 0 4 -4 4 -10z m-31 -17 c0 -11 -3 -13
-6 -5 -2 6 -10 9 -15 6 -7 -4 -8 -2 -4 4 11 18 26 14 25 -5z m-104 -93 c17
-18 17 -20 2 -14 -11 4 -17 1 -17 -7 0 -10 -3 -10 -11 -2 -7 7 -9 19 -6 27 8
20 10 20 32 -4z m-30 -40 c3 -5 2 -10 -4 -10 -5 0 -13 5 -16 10 -3 6 -2 10 4
10 5 0 13 -4 16 -10z m-69 -42 c-9 -5 -16 -18 -16 -28 0 -22 -15 -27 -26 -8
-4 6 -3 8 3 5 10 -6 27 27 24 45 0 4 6 5 15 1 15 -5 15 -7 0 -15z m-156 -196
c0 -11 -8 -18 -20 -19 -11 -1 -20 3 -20 8 0 6 5 7 10 4 6 -3 13 1 16 9 8 21
14 20 14 -2z m70 4 c0 -3 -4 -8 -10 -11 -5 -3 -10 -1 -10 4 0 6 5 11 10 11 6
0 10 -2 10 -4z m-248 -138 c-7 -7 -12 -8 -12 -2 0 14 12 26 19 19 2 -3 -1 -11
-7 -17z m-118 -170 c-3 -4 -11 -8 -19 -8 -8 0 -16 4 -19 8 -2 4 6 8 19 8 13 0
21 -4 19 -8z m-114 -68 c0 -5 -4 -10 -10 -10 -5 0 -10 5 -10 10 0 6 5 10 10
10 6 0 10 -4 10 -10z m45 0 c3 -5 1 -10 -4 -10 -6 0 -11 5 -11 10 0 6 2 10 4
10 3 0 8 -4 11 -10z m-70 -50 c3 -6 -1 -7 -9 -4 -18 7 -21 14 -7 14 6 0 13 -4
16 -10z m-45 -100 c0 -5 -2 -10 -4 -10 -3 0 -8 5 -11 10 -3 6 -1 10 4 10 6 0
11 -4 11 -10z m-25 -49 c-3 -2 -16 -6 -28 -8 -20 -2 -20 -2 -4 8 9 6 15 15 12
20 -4 5 -11 6 -17 3 -7 -5 -8 -2 -4 5 6 9 13 8 27 -5 11 -9 17 -20 14 -23z
m-115 -45 c0 -2 -7 -7 -16 -10 -8 -3 -12 -2 -9 4 6 10 25 14 25 6z m-29 -39
c-15 -15 -14 -30 1 -21 7 4 8 3 4 -5 -6 -9 -11 -9 -23 1 -9 7 -11 14 -5 16 6
2 8 10 5 18 -4 10 0 12 12 8 11 -5 13 -10 6 -17z m-37 -42 c3 -9 0 -15 -9 -15
-9 0 -12 6 -9 15 4 8 7 15 9 15 2 0 5 -7 9 -15z m-71 -64 c-12 -10 -19 -21
-16 -25 4 -3 2 -6 -4 -6 -23 0 -21 15 5 31 36 23 43 23 15 0z m17 -33 c0 -18
-2 -20 -9 -8 -6 8 -7 18 -5 22 9 14 14 9 14 -14z m-125 -8 c-3 -5 -12 -10 -18
-10 -7 0 -6 4 3 10 19 12 23 12 15 0z m-30 -20 c3 -6 -1 -7 -9 -4 -18 7 -21
14 -7 14 6 0 13 -4 16 -10z m-45 -44 c0 -3 -4 -8 -10 -11 -5 -3 -10 -1 -10 4
0 6 5 11 10 11 6 0 10 -2 10 -4z m70 -22 c0 -8 -19 -13 -24 -6 -3 5 1 9 9 9 8
0 15 -2 15 -3z m-30 -49 c-7 -9 -15 -13 -19 -10 -3 3 1 10 9 15 21 14 24 12
10 -5z m-74 -67 c-6 -4 -7 -8 -2 -8 5 0 2 -8 -5 -17 -8 -9 -9 -14 -3 -10 7 4
18 -1 25 -10 8 -10 9 -14 2 -10 -6 4 -14 3 -18 -3 -10 -16 -35 -12 -42 8 -4 9
-11 21 -17 25 -6 4 0 7 14 5 21 -2 26 2 28 24 3 22 6 25 17 15 9 -9 10 -14 1
-19z m-76 -93 c0 -8 -4 -15 -10 -15 -5 0 -7 7 -4 15 4 8 8 15 10 15 2 0 4 -7
4 -15z"/>
<path d="M6513 6835 c0 -8 4 -15 9 -15 4 0 8 4 8 9 0 6 -4 12 -8 15 -5 3 -9
-1 -9 -9z"/>
<path d="M7470 7672 c0 -5 7 -9 15 -9 8 0 15 4 15 9 0 4 -7 8 -15 8 -8 0 -15
-4 -15 -8z"/>
<path d="M8126 3843 c4 -2111 8 -3840 10 -3842 2 -2 6 -2 9 0 2 3 7 1731 11
3842 l7 3837 -21 0 -22 0 6 -3837z"/>
<path d="M7298 7564 c-8 -7 3 -54 13 -54 5 0 5 8 2 18 -6 15 -5 16 12 2 17
-14 18 -14 7 7 -13 24 -27 35 -34 27z"/>
<path d="M7145 7381 c-3 -5 -2 -12 3 -15 5 -3 9 1 9 9 0 17 -3 19 -12 6z"/>
<path d="M6925 7170 c-3 -5 -1 -10 4 -10 6 0 11 5 11 10 0 6 -2 10 -4 10 -3 0
-8 -4 -11 -10z"/>
<path d="M6826 7098 c3 -5 9 -7 12 -4 3 3 11 1 19 -5 10 -9 13 -8 13 0 0 7 5
9 13 5 7 -4 8 -3 4 2 -11 12 -68 14 -61 2z"/>
<path d="M6729 7008 c-1 -2 -2 -15 -3 -30 -3 -28 7 -37 19 -18 3 6 2 10 -4 10
-5 0 -8 9 -6 20 3 16 -1 29 -6 18z"/>
<path d="M6664 6936 c4 -11 0 -27 -11 -38 -16 -18 -15 -19 14 -16 17 1 30 8
30 15 0 10 -4 10 -11 3 -20 -20 -26 -10 -10 15 9 14 14 28 10 32 -3 3 -6 0 -6
-8 0 -12 -2 -11 -11 1 -9 12 -10 12 -5 -4z"/>
<path d="M6731 6924 c0 -11 3 -14 6 -6 3 7 2 16 -1 19 -3 4 -6 -2 -5 -13z"/>
<path d="M6465 6760 c3 -5 8 -10 11 -10 2 0 4 5 4 10 0 6 -5 10 -11 10 -5 0
-7 -4 -4 -10z"/>
<path d="M6467 6676 c-4 -10 1 -12 14 -9 23 6 24 9 5 16 -8 3 -17 0 -19 -7z"/>
<path d="M6520 6659 c0 -5 5 -7 10 -4 6 3 10 8 10 11 0 2 -4 4 -10 4 -5 0 -10
-5 -10 -11z"/>
<path d="M6445 6630 c-18 -8 -18 -9 -2 -9 12 -1 16 -6 11 -13 -4 -7 -3 -9 1
-5 7 6 17 39 12 36 -1 0 -11 -4 -22 -9z"/>
<path d="M6340 6483 c0 -4 5 -15 10 -23 8 -13 10 -13 10 2 0 9 -4 20 -10 23
-5 3 -10 3 -10 -2z"/>
<path d="M6155 6360 c3 -5 11 -10 16 -10 6 0 7 5 4 10 -3 6 -11 10 -16 10 -6
0 -7 -4 -4 -10z"/>
<path d="M6207 6356 c-21 -16 -22 -23 -2 -23 8 0 12 4 9 8 -2 4 2 9 8 12 7 2
11 7 8 10 -3 3 -13 0 -23 -7z"/>
<path d="M5981 6174 c-18 -21 -6 -30 14 -11 8 9 15 18 15 21 0 11 -15 5 -29
-10z"/>
<path d="M5850 6051 c0 -6 4 -13 10 -16 6 -3 7 1 4 9 -7 18 -14 21 -14 7z"/>
<path d="M5710 5886 c0 -2 7 -6 15 -10 8 -3 15 -1 15 4 0 6 -7 10 -15 10 -8 0
-15 -2 -15 -4z"/>
<path d="M5661 5854 c-7 -8 -11 -17 -9 -20 3 -2 13 5 23 16 10 11 14 20 9 20
-5 -1 -15 -8 -23 -16z"/>
<path d="M5460 5660 c0 -5 5 -10 11 -10 5 0 7 5 4 10 -3 6 -8 10 -11 10 -2 0
-4 -4 -4 -10z"/>
<path d="M5265 5501 c-3 -6 -10 -9 -15 -6 -15 9 -22 -15 -10 -31 11 -12 15
-10 27 12 13 26 12 46 -2 25z"/>
<path d="M5217 5429 c-4 -16 -3 -18 9 -8 16 13 19 29 5 29 -5 0 -11 -9 -14
-21z"/>
<path d="M5160 5308 c-12 -22 -12 -22 6 -6 10 10 15 20 12 24 -4 3 -12 -5 -18
-18z"/>
<path d="M5085 5160 c-3 -5 -1 -10 4 -10 6 0 11 5 11 10 0 6 -2 10 -4 10 -3 0
-8 -4 -11 -10z"/>
<path d="M5372 4658 c15 -45 18 -47 15 -8 -1 18 -8 35 -14 37 -10 4 -10 -3 -1
-29z"/>
<path d="M5406 4563 c4 -16 11 -37 16 -48 7 -17 8 -16 3 5 -2 14 -5 35 -5 48
0 12 -5 22 -10 22 -6 0 -8 -11 -4 -27z"/>
<path d="M5435 4342 c-1 -129 0 -134 13 -91 14 48 12 183 -4 211 -6 11 -9 -31
-9 -120z"/>
<path d="M3149 3203 c6 -12 16 -25 21 -28 17 -11 11 5 -11 28 l-21 22 11 -22z"/>
<path d="M3120 3141 c0 -5 5 -13 10 -16 6 -3 10 -2 10 4 0 5 -4 13 -10 16 -5
3 -10 2 -10 -4z"/>
<path d="M3350 3130 c0 -5 7 -10 15 -10 8 0 15 5 15 10 0 6 -7 10 -15 10 -8 0
-15 -4 -15 -10z"/>
<path d="M2991 3088 c-1 -10 6 -18 14 -18 8 0 15 5 15 11 0 5 -4 8 -9 5 -5 -4
-12 0 -14 6 -3 8 -6 6 -6 -4z"/>
<path d="M3470 3085 c0 -8 7 -15 16 -15 9 0 18 -9 21 -20 3 -11 12 -20 20 -20
11 0 9 8 -9 29 -27 35 -48 46 -48 26z"/>
<path d="M3040 3050 c0 -5 5 -10 11 -10 5 0 7 5 4 10 -3 6 -8 10 -11 10 -2 0
-4 -4 -4 -10z"/>
<path d="M2950 3006 c0 -2 7 -7 16 -10 8 -3 12 -2 9 4 -6 10 -25 14 -25 6z"/>
<path d="M2911 2984 c0 -11 3 -14 6 -6 3 7 2 16 -1 19 -3 4 -6 -2 -5 -13z"/>
<path d="M2834 2981 c4 -5 1 -11 -6 -13 -7 -3 -8 -7 -3 -10 6 -2 18 3 28 14
16 17 16 18 -4 18 -11 0 -18 -4 -15 -9z"/>
<path d="M2741 2924 c0 -11 3 -14 6 -6 3 7 2 16 -1 19 -3 4 -6 -2 -5 -13z"/>
<path d="M2800 2920 c-12 -8 -10 -10 8 -10 13 0 20 4 17 10 -7 12 -6 12 -25 0z"/>
<path d="M2841 2904 c0 -11 3 -14 6 -6 3 7 2 16 -1 19 -3 4 -6 -2 -5 -13z"/>
<path d="M2646 2795 c-3 -8 -1 -15 4 -15 6 0 10 7 10 15 0 8 -2 15 -4 15 -2 0
-6 -7 -10 -15z"/>
<path d="M2536 2702 c-3 -3 -6 -10 -6 -16 0 -6 4 -6 11 1 6 6 17 9 24 7 7 -3
15 -2 18 3 6 9 -39 14 -47 5z"/>
<path d="M2525 2660 c-4 -6 -11 -8 -16 -4 -6 3 -7 -4 -3 -20 7 -29 2 -31 -28
-15 -18 9 -19 9 -10 -7 6 -10 21 -19 34 -19 21 -2 24 2 20 22 -2 13 1 30 8 38
7 8 10 15 7 15 -3 0 -9 -5 -12 -10z"/>
<path d="M2500 2552 c0 -7 -11 -12 -25 -12 -14 0 -25 -4 -25 -10 0 -5 7 -7 15
-4 11 5 14 2 9 -12 -5 -12 2 -8 16 9 12 15 20 31 16 34 -3 4 -6 1 -6 -5z"/>
<path d="M2426 2474 c-5 -14 -4 -15 8 -5 11 9 15 9 19 -1 4 -8 6 -7 6 5 1 22
-25 22 -33 1z"/>
<path d="M2334 2336 c1 -8 5 -18 8 -22 4 -3 5 1 4 10 -1 8 -5 18 -8 22 -4 3
-5 -1 -4 -10z"/>
<path d="M2105 2171 c-3 -5 -2 -12 3 -15 5 -3 9 1 9 9 0 17 -3 19 -12 6z"/>
<path d="M1910 1928 c0 -9 5 -20 10 -23 13 -8 13 5 0 25 -8 13 -10 13 -10 -2z"/>
<path d="M1807 1835 c-4 -8 -2 -17 3 -20 6 -4 10 -1 10 5 0 6 4 8 10 5 6 -3 7
1 4 9 -8 20 -20 20 -27 1z"/>
<path d="M1700 1784 c0 -8 5 -12 10 -9 6 4 8 11 5 16 -9 14 -15 11 -15 -7z"/>
<path d="M1650 1704 c0 -9 -5 -12 -12 -8 -7 4 -8 3 -4 -5 6 -9 11 -9 22 0 7 6
11 15 8 20 -8 14 -14 11 -14 -7z"/>
<path d="M1470 1518 c0 -14 15 -16 27 -3 10 11 9 13 -7 12 -11 -1 -20 -5 -20
-9z"/>
<path d="M1448 1453 c7 -3 16 -2 19 1 4 3 -2 6 -13 5 -11 0 -14 -3 -6 -6z"/>
<path d="M1336 1248 c3 -5 10 -6 15 -3 13 9 11 12 -6 12 -8 0 -12 -4 -9 -9z"/>
<path d="M1206 1157 c3 -10 9 -15 12 -12 3 3 0 11 -7 18 -10 9 -11 8 -5 -6z"/>
<path d="M1114 1085 c-9 -21 -2 -26 13 -10 8 9 9 16 3 20 -6 3 -13 -1 -16 -10z"/>
<path d="M1072 1050 c-2 -31 12 -57 22 -41 4 6 3 11 -3 11 -5 0 -12 12 -14 28
-4 26 -4 26 -5 2z"/>
<path d="M999 1013 c-1 -4 -1 -11 0 -15 0 -5 -3 -8 -9 -8 -5 0 -7 -7 -4 -15 4
-8 10 -13 14 -10 12 8 19 44 9 51 -5 3 -10 2 -10 -3z"/>
<path d="M900 900 c0 -5 4 -10 9 -10 6 0 13 5 16 10 3 6 -1 10 -9 10 -9 0 -16
-4 -16 -10z"/>
<path d="M917 860 c-3 -11 -1 -20 4 -20 5 0 9 9 9 20 0 11 -2 20 -4 20 -2 0
-6 -9 -9 -20z"/>
<path d="M920 819 c0 -5 5 -7 10 -4 6 3 10 8 10 11 0 2 -4 4 -10 4 -5 0 -10
-5 -10 -11z"/>
<path d="M828 813 c7 -3 16 -2 19 1 4 3 -2 6 -13 5 -11 0 -14 -3 -6 -6z"/>
<path d="M827 794 c7 -3 9 -13 6 -22 -4 -14 -3 -14 5 -2 12 16 7 30 -11 29 -9
0 -9 -2 0 -5z"/>
<path d="M870 789 c0 -5 5 -7 10 -4 6 3 10 8 10 11 0 2 -4 4 -10 4 -5 0 -10
-5 -10 -11z"/>
<path d="M735 729 c2 -33 15 -53 15 -23 0 11 5 25 11 31 7 7 5 12 -9 15 -15 4
-18 0 -17 -23z"/>
<path d="M760 700 c0 -5 5 -10 10 -10 6 0 10 5 10 10 0 6 -4 10 -10 10 -5 0
-10 -4 -10 -10z"/>
<path d="M700 675 c0 -2 7 -8 15 -15 12 -10 15 -10 15 2 0 8 -7 15 -15 15 -8
0 -15 -1 -15 -2z"/>
<path d="M680 619 c0 -5 5 -7 10 -4 6 3 10 8 10 11 0 2 -4 4 -10 4 -5 0 -10
-5 -10 -11z"/>
<path d="M542 538 c-16 -16 -15 -25 1 -25 7 0 14 9 14 19 2 21 1 22 -15 6z"/>
<path d="M445 380 c-3 -5 -2 -16 2 -24 7 -12 10 -12 21 0 8 9 9 14 2 14 -6 0
-8 5 -5 10 3 6 2 10 -4 10 -5 0 -13 -4 -16 -10z"/>
<path d="M356 319 c-19 -19 -19 -19 0 -19 13 0 20 7 21 20 2 24 3 24 -21 -1z"/>
<path d="M215 211 c-3 -8 -1 -19 5 -25 8 -8 9 -6 4 8 -5 14 -3 17 7 14 8 -3
13 -11 11 -17 -2 -9 3 -9 17 -2 10 6 22 7 27 3 5 -4 5 -3 1 3 -5 6 -14 10 -20
10 -7 1 -11 5 -10 11 3 16 -36 11 -42 -5z"/>
<path d="M277 109 c7 -7 15 -10 18 -7 3 3 -2 9 -12 12 -14 6 -15 5 -6 -5z"/>
<path d="M220 91 c0 -6 5 -13 10 -16 6 -3 10 1 10 9 0 9 -4 16 -10 16 -5 0
-10 -4 -10 -9z"/>
<path d="M108 8 c6 -6 18 -8 28 -6 14 3 12 5 -9 10 -19 3 -25 2 -19 -4z"/>
</g>
</svg>
